<?xml version="1.0" encoding="UTF-8"?>
<svg width="72" height="85" preserveAspectRatio="xMidYMid meet" version="1.1" xmlns="http://www.w3.org/2000/svg" xmlns:xlink="http://www.w3.org/1999/xlink">
    <g id="v6" stroke="none" stroke-width="1" fill="none" fill-rule="evenodd">
        <g transform="translate(-144.000000, -129.000000)">
            <g id="Navigation/_assets/menu_icons/Epic_Logo" transform="translate(144.000000, 129.000000)">
                <path d="M6.46013793,0 C1.74165517,0 0,1.77992537 0,6.60462687 L0,64.8232836 C0,65.3700746 0.0211034483,65.8762687 0.0682758621,66.3469403 C0.176275862,67.3999254 0,69.4803326 3.70675862,71.1424627 C6.17793103,72.2505494 15.8372867,76.3419673 32.6848256,83.4167164 C34.3154463,84.1101602 34.7742254,84.2742803 35.997603,84.2742803 C37.087534,84.2958474 37.8070851,84.1144776 39.2954989,83.4167164 C56.154614,76.5641196 65.8193439,72.4727017 68.2896887,71.1424627 C71.995206,69.1471041 71.995206,65.3700746 71.995206,64.8232836 L71.995206,6.60462687 C71.995206,1.77992537 70.2535508,0 65.535068,0 L6.46013793,0 Z"
                      id="Fill-1" fill="#FFFFFF"/>
                <g id="ic_signal_wifi_off_black_24px" transform="translate(24.000000, 27.000000)">
                    <polygon id="Shape" points="0 0 24 0 24 24 0 24"/>
                    <path d="M23.64,7 C23.19,6.66 18.71,3 12,3 C10.5,3 9.11,3.19 7.85,3.48 L18.18,13.8 L23.64,7 Z M17.04,15.22 L3.27,1.44 L2,2.72 L4.05,4.78 C1.91,5.76 0.59,6.82 0.36,7 L11.99,21.49 L12,21.5 L12.01,21.49 L15.91,16.63 L19.23,19.95 L20.5,18.68 L17.04,15.22 Z"
                          id="Shape" fill="#000000" fill-rule="nonzero"/>
                </g>
            </g>
        </g>
    </g>
</svg>
